<svg xmlns="http://www.w3.org/2000/svg" viewBox="0 0 24 24" fill="currentColor">
  <path d="M5.927 12.497c2.063-.443 1.782-2.909 1.72-3.448-.101-.83-.946-2.477-2.792-2.332C2.863 6.88 2.212 9.209 2.212 9.9c0 .69.463 3.033 3.715 2.597zm3.294-3.678c1.293 0 2.343-1.328 2.343-2.966 0-1.637-1.05-2.966-2.343-2.966S6.88 4.217 6.88 5.853c0 1.638 1.047 2.966 2.34 2.966zm5.62 0c1.292 0 2.342-1.328 2.342-2.966 0-1.637-1.05-2.966-2.343-2.966-1.293 0-2.343 1.329-2.343 2.966 0 1.638 1.05 2.966 2.343 2.966zm4.067 3.74c-.069-.54-.318-3.09-2.311-3.09-1.994 0-2.479 2.126-2.479 3.143 0 1.017.734 2.876 3.067 2.876 2.332 0 1.793-2.389 1.723-2.93zM12 12.496c-4.494 0-6.752 3.617-6.752 5.515 0 1.898 1.153 4.103 2.453 4.77 1.3.666 3.086.89 4.323.89 1.238 0 2.54-.089 3.89-.89 1.35-.8 2.839-2.744 2.839-4.833 0-2.09-2.26-5.452-6.753-5.452z"/>
</svg>
