<svg xmlns="http://www.w3.org/2000/svg" viewBox="0 0 24 24" fill="currentColor">
  <path d="M18.6 6.62c-1.44 0-2.8.56-3.77 1.53L12 10.66 9.17 8.15C8.2 7.18 6.84 6.62 5.4 6.62 2.42 6.62 0 9.04 0 12s2.42 5.38 5.4 5.38c1.44 0 2.8-.56 3.77-1.53L12 13.34l2.83 2.51c.97.97 2.33 1.53 3.77 1.53 2.98 0 5.4-2.42 5.4-5.38s-2.42-5.38-5.4-5.38zM5.4 14.38c-1.32 0-2.4-1.08-2.4-2.38s1.08-2.38 2.4-2.38c.63 0 1.23.25 1.68.7l2.08 1.84-2.08 1.84c-.45.45-1.05.7-1.68.7zm13.2 0c-.63 0-1.23-.25-1.68-.7l-2.08-1.84 2.08-1.84c.45-.45 1.05-.7 1.68-.7 1.32 0 2.4 1.08 2.4 2.38s-1.08 2.38-2.4 2.38z"/>
</svg>
