<svg width="23" height="30" viewBox="0 0 23 30" fill="none" xmlns="http://www.w3.org/2000/svg">
<path d="M7.40417 0H20.446C21.8535 0 23 1.13649 23 2.53167V27.233C23 28.6282 21.8535 29.7647 20.446 29.7647H2.55405C1.14653 29.7647 0 28.6282 0 27.233V7.3393C0 7.07687 0.10711 6.83985 0.280598 6.66788L6.72681 0.27814C6.91312 0.0927133 7.15903 0.000747688 7.40417 0ZM3.26987 6.39049H6.76076V2.93019L3.26987 6.39049ZM8.67667 1.89913V7.34005C8.67667 7.86418 8.24747 8.28962 7.71871 8.28962H1.91591V27.233C1.91591 27.58 2.20405 27.8656 2.55405 27.8656H20.446C20.7959 27.8656 21.0841 27.58 21.0841 27.233V2.53167C21.0841 2.18474 20.7959 1.89913 20.446 1.89913H8.67667Z" fill="#7583B2"/>
<path d="M5.72163 13.5886C5.19287 13.5886 4.76367 13.1631 4.76367 12.639C4.76367 12.1149 5.19287 11.6895 5.72163 11.6895H17.2782C17.807 11.6895 18.2362 12.1149 18.2362 12.639C18.2362 13.1631 17.807 13.5886 17.2782 13.5886H5.72163Z" fill="#7583B2"/>
<path d="M5.72163 17.073C5.19287 17.073 4.76367 16.6475 4.76367 16.1234C4.76367 15.5993 5.19287 15.1738 5.72163 15.1738H17.2782C17.807 15.1738 18.2362 15.5993 18.2362 16.1234C18.2362 16.6475 17.807 17.073 17.2782 17.073H5.72163Z" fill="#7583B2"/>
<path d="M5.72163 20.5573C5.19287 20.5573 4.76367 20.1319 4.76367 19.6078C4.76367 19.0836 5.19287 18.6582 5.72163 18.6582H17.2782C17.807 18.6582 18.2362 19.0836 18.2362 19.6078C18.2362 20.1319 17.807 20.5573 17.2782 20.5573H5.72163Z" fill="#7583B2"/>
<path d="M5.72163 24.0437C5.19287 24.0437 4.76367 23.6182 4.76367 23.0941C4.76367 22.57 5.19287 22.1445 5.72163 22.1445H10.5974C11.1262 22.1445 11.5554 22.57 11.5554 23.0941C11.5554 23.6182 11.1262 24.0437 10.5974 24.0437H5.72163Z" fill="#7583B2"/>
</svg>
