<svg width="24" height="24" viewBox="0 0 24 24" fill="none" xmlns="http://www.w3.org/2000/svg">
<rect width="24" height="24" rx="2" fill="#F7F8FA"/>
<g clip-path="url(#clip0_507_2851)">
<path fill-rule="evenodd" clip-rule="evenodd" d="M10.8215 8.66602L9.15482 6.99935H5.33333V16.9993H18.6667V8.66602H10.8215ZM4.5 6.99935C4.5 6.53912 4.8731 6.16602 5.33333 6.16602H9.15482C9.37583 6.16602 9.5878 6.25382 9.74407 6.41009L11.1667 7.83268H18.6667C19.1269 7.83268 19.5 8.20578 19.5 8.66602V16.9993C19.5 17.4596 19.1269 17.8327 18.6667 17.8327H5.33333C4.8731 17.8327 4.5 17.4596 4.5 16.9993V6.99935Z" fill="#86909C"/>
<path d="M13.0775 12.4158L12.1221 11.4603L12.7113 10.8711L14.6726 12.8324L12.7113 14.7937L12.1221 14.2044L13.0774 13.2491H9.5V12.4158H13.0775Z" fill="#86909C"/>
</g>
<defs>
<clipPath id="clip0_507_2851">
<rect width="20" height="20" fill="white" transform="translate(2 2)"/>
</clipPath>
</defs>
</svg>
